<mxfile host="drawio.corp.amazon.com" modified="2025-09-01T19:04:51.625Z" agent="Mozilla/5.0 (Macintosh; Intel Mac OS X 10_15_7) AppleWebKit/537.36 (KHTML, like Gecko) Chrome/139.0.0.0 Safari/537.36" etag="DnlHSmNYFrrHhgl4vMfi" version="21.7.4" type="device">
  <diagram name="Page-1" id="lHnVtgxG0PjFdy5DtGLT">
    <mxGraphModel dx="1285" dy="1747" grid="1" gridSize="10" guides="1" tooltips="1" connect="1" arrows="1" fold="1" page="1" pageScale="1" pageWidth="850" pageHeight="1100" math="0" shadow="0">
      <root>
        <mxCell id="0" />
        <mxCell id="1" parent="0" />
        <mxCell id="ALPkJwnhKGgHHIPEUYuU-1" value="VPC" style="points=[[0,0],[0.25,0],[0.5,0],[0.75,0],[1,0],[1,0.25],[1,0.5],[1,0.75],[1,1],[0.75,1],[0.5,1],[0.25,1],[0,1],[0,0.75],[0,0.5],[0,0.25]];outlineConnect=0;gradientColor=none;html=1;whiteSpace=wrap;fontSize=12;fontStyle=0;container=1;pointerEvents=0;collapsible=0;recursiveResize=0;shape=mxgraph.aws4.group;grIcon=mxgraph.aws4.group_vpc;strokeColor=#248814;fillColor=none;verticalAlign=top;align=left;spacingLeft=30;fontColor=#AAB7B8;dashed=0;" vertex="1" parent="1">
          <mxGeometry x="110" y="-20" width="900" height="440" as="geometry" />
        </mxCell>
        <mxCell id="ALPkJwnhKGgHHIPEUYuU-2" value="Private subnets" style="points=[[0,0],[0.25,0],[0.5,0],[0.75,0],[1,0],[1,0.25],[1,0.5],[1,0.75],[1,1],[0.75,1],[0.5,1],[0.25,1],[0,1],[0,0.75],[0,0.5],[0,0.25]];outlineConnect=0;gradientColor=none;html=1;whiteSpace=wrap;fontSize=12;fontStyle=0;container=1;pointerEvents=0;collapsible=0;recursiveResize=0;shape=mxgraph.aws4.group;grIcon=mxgraph.aws4.group_security_group;grStroke=0;strokeColor=#147EBA;fillColor=#E6F2F8;verticalAlign=top;align=left;spacingLeft=30;fontColor=#147EBA;dashed=0;" vertex="1" parent="ALPkJwnhKGgHHIPEUYuU-1">
          <mxGeometry x="30" y="160" width="510" height="250" as="geometry" />
        </mxCell>
        <mxCell id="ALPkJwnhKGgHHIPEUYuU-7" value="Auto Scaling group" style="points=[[0,0],[0.25,0],[0.5,0],[0.75,0],[1,0],[1,0.25],[1,0.5],[1,0.75],[1,1],[0.75,1],[0.5,1],[0.25,1],[0,1],[0,0.75],[0,0.5],[0,0.25]];outlineConnect=0;gradientColor=none;html=1;whiteSpace=wrap;fontSize=12;fontStyle=0;container=1;pointerEvents=0;collapsible=0;recursiveResize=0;shape=mxgraph.aws4.groupCenter;grIcon=mxgraph.aws4.group_auto_scaling_group;grStroke=1;strokeColor=#D86613;fillColor=none;verticalAlign=top;align=center;fontColor=#D86613;spacingTop=25;" vertex="1" parent="ALPkJwnhKGgHHIPEUYuU-2">
          <mxGeometry x="20" y="50" width="220" height="160" as="geometry" />
        </mxCell>
        <mxCell id="ALPkJwnhKGgHHIPEUYuU-8" value="ZooKeeper Nodes&lt;br&gt;(Always in private subnets)" style="sketch=0;outlineConnect=0;fontColor=#232F3E;gradientColor=none;fillColor=#ED7100;strokeColor=none;dashed=0;verticalLabelPosition=bottom;verticalAlign=top;align=center;html=1;fontSize=12;fontStyle=0;aspect=fixed;pointerEvents=1;shape=mxgraph.aws4.instances;" vertex="1" parent="ALPkJwnhKGgHHIPEUYuU-7">
          <mxGeometry x="86" y="64" width="48" height="48" as="geometry" />
        </mxCell>
        <mxCell id="ALPkJwnhKGgHHIPEUYuU-9" value="Auto Scaling group" style="points=[[0,0],[0.25,0],[0.5,0],[0.75,0],[1,0],[1,0.25],[1,0.5],[1,0.75],[1,1],[0.75,1],[0.5,1],[0.25,1],[0,1],[0,0.75],[0,0.5],[0,0.25]];outlineConnect=0;gradientColor=none;html=1;whiteSpace=wrap;fontSize=12;fontStyle=0;container=1;pointerEvents=0;collapsible=0;recursiveResize=0;shape=mxgraph.aws4.groupCenter;grIcon=mxgraph.aws4.group_auto_scaling_group;grStroke=1;strokeColor=#D86613;fillColor=none;verticalAlign=top;align=center;fontColor=#D86613;spacingTop=25;" vertex="1" parent="ALPkJwnhKGgHHIPEUYuU-2">
          <mxGeometry x="268" y="50" width="220" height="160" as="geometry" />
        </mxCell>
        <mxCell id="ALPkJwnhKGgHHIPEUYuU-10" value="NiFi Nodes&lt;br&gt;(w/ Client VPN)" style="sketch=0;outlineConnect=0;fontColor=#232F3E;gradientColor=none;fillColor=#ED7100;strokeColor=none;dashed=0;verticalLabelPosition=bottom;verticalAlign=top;align=center;html=1;fontSize=12;fontStyle=0;aspect=fixed;pointerEvents=1;shape=mxgraph.aws4.instances;" vertex="1" parent="ALPkJwnhKGgHHIPEUYuU-9">
          <mxGeometry x="86" y="64" width="48" height="48" as="geometry" />
        </mxCell>
        <mxCell id="ALPkJwnhKGgHHIPEUYuU-3" value="Public subnets" style="points=[[0,0],[0.25,0],[0.5,0],[0.75,0],[1,0],[1,0.25],[1,0.5],[1,0.75],[1,1],[0.75,1],[0.5,1],[0.25,1],[0,1],[0,0.75],[0,0.5],[0,0.25]];outlineConnect=0;gradientColor=none;html=1;whiteSpace=wrap;fontSize=12;fontStyle=0;container=1;pointerEvents=0;collapsible=0;recursiveResize=0;shape=mxgraph.aws4.group;grIcon=mxgraph.aws4.group_security_group;grStroke=0;strokeColor=#248814;fillColor=#E9F3E6;verticalAlign=top;align=left;spacingLeft=30;fontColor=#248814;dashed=0;" vertex="1" parent="ALPkJwnhKGgHHIPEUYuU-1">
          <mxGeometry x="560" y="160" width="310" height="250" as="geometry" />
        </mxCell>
        <mxCell id="ALPkJwnhKGgHHIPEUYuU-11" value="Auto Scaling group" style="points=[[0,0],[0.25,0],[0.5,0],[0.75,0],[1,0],[1,0.25],[1,0.5],[1,0.75],[1,1],[0.75,1],[0.5,1],[0.25,1],[0,1],[0,0.75],[0,0.5],[0,0.25]];outlineConnect=0;gradientColor=none;html=1;whiteSpace=wrap;fontSize=12;fontStyle=0;container=1;pointerEvents=0;collapsible=0;recursiveResize=0;shape=mxgraph.aws4.groupCenter;grIcon=mxgraph.aws4.group_auto_scaling_group;grStroke=1;strokeColor=#D86613;fillColor=none;verticalAlign=top;align=center;fontColor=#D86613;spacingTop=25;" vertex="1" parent="ALPkJwnhKGgHHIPEUYuU-3">
          <mxGeometry x="45" y="50" width="220" height="160" as="geometry" />
        </mxCell>
        <mxCell id="ALPkJwnhKGgHHIPEUYuU-12" value="NiFi Nodes&lt;br&gt;(w/o Client VPN)" style="sketch=0;outlineConnect=0;fontColor=#232F3E;gradientColor=none;fillColor=#ED7100;strokeColor=none;dashed=0;verticalLabelPosition=bottom;verticalAlign=top;align=center;html=1;fontSize=12;fontStyle=0;aspect=fixed;pointerEvents=1;shape=mxgraph.aws4.instances;" vertex="1" parent="ALPkJwnhKGgHHIPEUYuU-11">
          <mxGeometry x="86" y="64" width="48" height="48" as="geometry" />
        </mxCell>
        <mxCell id="ALPkJwnhKGgHHIPEUYuU-16" style="edgeStyle=orthogonalEdgeStyle;rounded=0;orthogonalLoop=1;jettySize=auto;html=1;" edge="1" parent="ALPkJwnhKGgHHIPEUYuU-1" source="ALPkJwnhKGgHHIPEUYuU-13" target="ALPkJwnhKGgHHIPEUYuU-10">
          <mxGeometry relative="1" as="geometry" />
        </mxCell>
        <mxCell id="ALPkJwnhKGgHHIPEUYuU-13" value="AWS Client VPN" style="sketch=0;points=[[0,0,0],[0.25,0,0],[0.5,0,0],[0.75,0,0],[1,0,0],[0,1,0],[0.25,1,0],[0.5,1,0],[0.75,1,0],[1,1,0],[0,0.25,0],[0,0.5,0],[0,0.75,0],[1,0.25,0],[1,0.5,0],[1,0.75,0]];outlineConnect=0;fontColor=#232F3E;fillColor=#8C4FFF;strokeColor=#ffffff;dashed=0;verticalLabelPosition=bottom;verticalAlign=top;align=center;html=1;fontSize=12;fontStyle=0;aspect=fixed;shape=mxgraph.aws4.resourceIcon;resIcon=mxgraph.aws4.client_vpn;" vertex="1" parent="ALPkJwnhKGgHHIPEUYuU-1">
          <mxGeometry x="370" y="30" width="78" height="78" as="geometry" />
        </mxCell>
        <mxCell id="ALPkJwnhKGgHHIPEUYuU-4" value="Secrets Manager&lt;br&gt;(Stores root CA)" style="sketch=0;points=[[0,0,0],[0.25,0,0],[0.5,0,0],[0.75,0,0],[1,0,0],[0,1,0],[0.25,1,0],[0.5,1,0],[0.75,1,0],[1,1,0],[0,0.25,0],[0,0.5,0],[0,0.75,0],[1,0.25,0],[1,0.5,0],[1,0.75,0]];outlineConnect=0;fontColor=#232F3E;fillColor=#DD344C;strokeColor=#ffffff;dashed=0;verticalLabelPosition=bottom;verticalAlign=top;align=center;html=1;fontSize=12;fontStyle=0;aspect=fixed;shape=mxgraph.aws4.resourceIcon;resIcon=mxgraph.aws4.secrets_manager;" vertex="1" parent="1">
          <mxGeometry x="170" y="-160" width="78" height="78" as="geometry" />
        </mxCell>
        <mxCell id="ALPkJwnhKGgHHIPEUYuU-5" value="ACM&lt;br&gt;(for AWS Client VPN)" style="sketch=0;points=[[0,0,0],[0.25,0,0],[0.5,0,0],[0.75,0,0],[1,0,0],[0,1,0],[0.25,1,0],[0.5,1,0],[0.75,1,0],[1,1,0],[0,0.25,0],[0,0.5,0],[0,0.75,0],[1,0.25,0],[1,0.5,0],[1,0.75,0]];outlineConnect=0;fontColor=#232F3E;fillColor=#DD344C;strokeColor=#ffffff;dashed=0;verticalLabelPosition=bottom;verticalAlign=top;align=center;html=1;fontSize=12;fontStyle=0;aspect=fixed;shape=mxgraph.aws4.resourceIcon;resIcon=mxgraph.aws4.certificate_manager_3;" vertex="1" parent="1">
          <mxGeometry x="290" y="-160" width="78" height="78" as="geometry" />
        </mxCell>
        <mxCell id="ALPkJwnhKGgHHIPEUYuU-15" style="edgeStyle=orthogonalEdgeStyle;rounded=0;orthogonalLoop=1;jettySize=auto;html=1;entryX=0.5;entryY=0;entryDx=0;entryDy=0;entryPerimeter=0;" edge="1" parent="1" source="ALPkJwnhKGgHHIPEUYuU-14" target="ALPkJwnhKGgHHIPEUYuU-13">
          <mxGeometry relative="1" as="geometry" />
        </mxCell>
        <mxCell id="ALPkJwnhKGgHHIPEUYuU-17" style="edgeStyle=orthogonalEdgeStyle;rounded=0;orthogonalLoop=1;jettySize=auto;html=1;" edge="1" parent="1" source="ALPkJwnhKGgHHIPEUYuU-14" target="ALPkJwnhKGgHHIPEUYuU-11">
          <mxGeometry relative="1" as="geometry" />
        </mxCell>
        <mxCell id="ALPkJwnhKGgHHIPEUYuU-14" value="User" style="sketch=0;outlineConnect=0;fontColor=#232F3E;gradientColor=none;fillColor=#232F3D;strokeColor=none;dashed=0;verticalLabelPosition=bottom;verticalAlign=top;align=center;html=1;fontSize=12;fontStyle=0;aspect=fixed;pointerEvents=1;shape=mxgraph.aws4.user;" vertex="1" parent="1">
          <mxGeometry x="620" y="-160" width="78" height="78" as="geometry" />
        </mxCell>
      </root>
    </mxGraphModel>
  </diagram>
</mxfile>
